<svg width="21" height="18" viewBox="0 0 21 18" fill="none" xmlns="http://www.w3.org/2000/svg">
<mask id="mask0_294678_9860" style="mask-type:alpha" maskUnits="userSpaceOnUse" x="0" y="-1" width="21" height="20">
<rect x="0.5" y="-1" width="20" height="20" fill="#D9D9D9"/>
</mask>
<g mask="url(#mask0_294678_9860)">
<path d="M9.66676 5.52083L5.58342 9.60417C5.41676 9.77083 5.22231 9.85069 5.00009 9.84375C4.77787 9.83681 4.58342 9.75 4.41676 9.58333C4.26398 9.41667 4.18412 9.22222 4.17717 9C4.17023 8.77778 4.25009 8.58333 4.41676 8.41667L9.91676 2.91667C10.0001 2.83333 10.0904 2.77431 10.1876 2.73958C10.2848 2.70486 10.389 2.6875 10.5001 2.6875C10.6112 2.6875 10.7154 2.70486 10.8126 2.73958C10.9098 2.77431 11.0001 2.83333 11.0834 2.91667L16.5834 8.41667C16.7362 8.56944 16.8126 8.76042 16.8126 8.98958C16.8126 9.21875 16.7362 9.41667 16.5834 9.58333C16.4168 9.75 16.2188 9.83333 15.9897 9.83333C15.7605 9.83333 15.5626 9.75 15.3959 9.58333L11.3334 5.52083V14.8333C11.3334 15.0694 11.2536 15.2674 11.0938 15.4271C10.9341 15.5868 10.7362 15.6667 10.5001 15.6667C10.264 15.6667 10.0661 15.5868 9.90634 15.4271C9.74662 15.2674 9.66676 15.0694 9.66676 14.8333V5.52083Z" fill="white"/>
</g>
</svg>
