<svg width="21" height="20" viewBox="0 0 21 20" fill="none" xmlns="http://www.w3.org/2000/svg">
<mask id="mask0_294678_9865" style="mask-type:alpha" maskUnits="userSpaceOnUse" x="0" y="0" width="21" height="20">
<rect x="0.5" width="20" height="20" fill="#D9D9D9"/>
</mask>
<g mask="url(#mask0_294678_9865)">
<path d="M9.66764 13.4793V4.16683C9.66764 3.93072 9.7475 3.7328 9.90723 3.57308C10.0669 3.41336 10.2649 3.3335 10.501 3.3335C10.7371 3.3335 10.935 3.41336 11.0947 3.57308C11.2544 3.7328 11.3343 3.93072 11.3343 4.16683V13.4793L15.4176 9.396C15.5843 9.22933 15.7788 9.14947 16.001 9.15641C16.2232 9.16336 16.4176 9.25016 16.5843 9.41683C16.7371 9.5835 16.8169 9.77794 16.8239 10.0002C16.8308 10.2224 16.751 10.4168 16.5843 10.5835L11.0843 16.0835C11.001 16.1668 10.9107 16.2259 10.8135 16.2606C10.7163 16.2953 10.6121 16.3127 10.501 16.3127C10.3899 16.3127 10.2857 16.2953 10.1885 16.2606C10.0913 16.2259 10.001 16.1668 9.91764 16.0835L4.41764 10.5835C4.26487 10.4307 4.18848 10.2397 4.18848 10.0106C4.18848 9.78141 4.26487 9.5835 4.41764 9.41683C4.58431 9.25016 4.78223 9.16683 5.01139 9.16683C5.24056 9.16683 5.43848 9.25016 5.60514 9.41683L9.66764 13.4793Z" fill="white"/>
</g>
</svg>
