<svg width="25" height="25" viewBox="0 0 25 25" fill="none" xmlns="http://www.w3.org/2000/svg">
<mask id="mask0_294880_5327" style="mask-type:alpha" maskUnits="userSpaceOnUse" x="0" y="0" width="25" height="25">
<rect x="0.682129" y="0.396729" width="24" height="24" fill="#D9D9D9"/>
</mask>
<g mask="url(#mask0_294880_5327)">
<path d="M12.6819 13.7968L7.78193 18.6968C7.5986 18.8801 7.36527 18.9718 7.08193 18.9718C6.7986 18.9718 6.56527 18.8801 6.38193 18.6968C6.1986 18.5134 6.10693 18.2801 6.10693 17.9968C6.10693 17.7134 6.1986 17.4801 6.38193 17.2968L11.2819 12.3968L6.38193 7.49678C6.1986 7.31344 6.10693 7.08011 6.10693 6.79678C6.10693 6.51344 6.1986 6.28011 6.38193 6.09678C6.56527 5.91344 6.7986 5.82178 7.08193 5.82178C7.36527 5.82178 7.5986 5.91344 7.78193 6.09678L12.6819 10.9968L17.5819 6.09678C17.7653 5.91344 17.9986 5.82178 18.2819 5.82178C18.5653 5.82178 18.7986 5.91344 18.9819 6.09678C19.1653 6.28011 19.2569 6.51344 19.2569 6.79678C19.2569 7.08011 19.1653 7.31344 18.9819 7.49678L14.0819 12.3968L18.9819 17.2968C19.1653 17.4801 19.2569 17.7134 19.2569 17.9968C19.2569 18.2801 19.1653 18.5134 18.9819 18.6968C18.7986 18.8801 18.5653 18.9718 18.2819 18.9718C17.9986 18.9718 17.7653 18.8801 17.5819 18.6968L12.6819 13.7968Z" fill="#2A3647"/>
</g>
</svg>
